<svg width="20" height="20" viewBox="0 0 20 20" fill="none" xmlns="http://www.w3.org/2000/svg">
<path d="M4.15302 2.18729C4.76994 1.96792 5.43885 1.94058 6.07162 2.10886C6.70439 2.27715 7.27134 2.63317 7.69778 3.13003C8.12422 3.62689 8.39015 4.24127 8.46053 4.89224C8.53091 5.54322 8.40244 6.20024 8.09205 6.77676L18 16.6934L16.6904 18.0031L6.78098 8.08637C6.2043 8.39739 5.54692 8.52638 4.89547 8.45634C4.24402 8.38631 3.62908 8.12053 3.13169 7.69404C2.6343 7.26755 2.27781 6.70036 2.1092 6.06723C1.94058 5.43409 1.96776 4.76473 2.18714 4.14735L4.25924 6.21799C4.51511 6.48293 4.86574 6.63537 5.23401 6.64178C5.41635 6.64496 5.59754 6.61219 5.76722 6.54534C5.9369 6.47849 6.09175 6.37888 6.22294 6.25219C6.35412 6.12549 6.45906 5.9742 6.53178 5.80695C6.60449 5.6397 6.64355 5.45977 6.64673 5.27742C6.6499 5.09508 6.61713 4.91389 6.55029 4.74421C6.48344 4.57453 6.38382 4.41968 6.25713 4.28849L6.22221 4.25357L4.15156 2.18729H4.15302ZM13.7569 3.93344L16.6904 2.28915L18 3.59876L16.3703 6.54539L14.7332 6.8728L12.7703 8.83722L11.4607 7.5276L13.4251 5.56318L13.7569 3.93344ZM7.53182 11.455L8.84144 12.7646L3.93038 17.6742C3.76323 17.8395 3.53941 17.9351 3.30438 17.9414C3.06935 17.9477 2.84074 17.8643 2.66496 17.7081C2.48919 17.552 2.37943 17.3348 2.35798 17.1007C2.33653 16.8665 2.40499 16.633 2.54947 16.4475L2.62223 16.3675L7.53182 11.455Z" fill="#084D43"/>
</svg>
