<svg width="20" height="20" viewBox="0 0 20 20" fill="none" xmlns="http://www.w3.org/2000/svg">
<g clip-path="url(#clip0_54623_4297)">
<path d="M13.8889 1.5V3.1H16.2277C16.4324 3.10021 16.6288 3.18398 16.7736 3.33291C16.9184 3.48184 16.9998 3.68378 17 3.8944V16.7056C16.9998 16.9162 16.9184 17.1182 16.7736 17.2671C16.6288 17.416 16.4324 17.4998 16.2277 17.5H3.77233C3.56756 17.4998 3.37123 17.416 3.22644 17.2671C3.08164 17.1182 3.00021 16.9162 3 16.7056V3.8944C3.00021 3.68378 3.08164 3.48184 3.22644 3.33291C3.37123 3.18398 3.56756 3.10021 3.77233 3.1H6.11111V1.5H13.8889ZM6.11111 4.7H4.55556V15.9H15.4444V4.7H13.8889V6.3H6.11111V4.7ZM12.3333 3.1H7.66667V4.7H12.3333V3.1Z" fill="#084D43"/>
<path d="M9.30001 13.2938L6.77612 10.7002L7.8759 9.56984L9.30001 11.0322L12.9213 7.30664L14.0219 8.43784L9.30001 13.2938Z" fill="#084D43"/>
</g>
<defs>
<clipPath id="clip0_54623_4297">
<rect width="14" height="16" fill="white" transform="translate(3 1.5)"/>
</clipPath>
</defs>
</svg>
