<svg width="20" height="20" viewBox="0 0 20 20" fill="none" xmlns="http://www.w3.org/2000/svg">
<g clip-path="url(#clip0_131_5536)">
<mask id="mask0_131_5536" style="mask-type:luminance" maskUnits="userSpaceOnUse" x="2" y="2" width="16" height="16">
<path d="M18 2H2V18H18V2Z" fill="white"/>
</mask>
<g mask="url(#mask0_131_5536)">
<path d="M10 18C8.41775 18 6.87103 17.5308 5.55544 16.6518C4.23985 15.7727 3.21447 14.5233 2.60897 13.0615C2.00347 11.5997 1.84504 9.99113 2.15372 8.43928C2.4624 6.88743 3.22433 5.46197 4.34315 4.34315C5.46197 3.22433 6.88743 2.4624 8.43928 2.15372C9.99113 1.84504 11.5997 2.00347 13.0615 2.60897C14.5233 3.21447 15.7727 4.23985 16.6518 5.55544C17.5308 6.87103 18 8.41775 18 10C18 12.1217 17.1571 14.1566 15.6569 15.6569C14.1566 17.1571 12.1217 18 10 18ZM10 16.4C11.2658 16.4 12.5032 16.0247 13.5557 15.3214C14.6081 14.6182 15.4284 13.6186 15.9128 12.4492C16.3972 11.2797 16.524 9.9929 16.277 8.75143C16.0301 7.50995 15.4205 6.36958 14.5255 5.47452C13.6304 4.57946 12.4901 3.96992 11.2486 3.72298C10.0071 3.47603 8.72028 3.60277 7.55083 4.08717C6.38138 4.57158 5.38184 5.39188 4.6786 6.44435C3.97536 7.49683 3.6 8.7342 3.6 10C3.6 11.6974 4.27429 13.3253 5.47452 14.5255C6.67475 15.7257 8.30262 16.4 10 16.4ZM6 10H7.6C7.6 10.3152 7.66208 10.6273 7.78269 10.9184C7.9033 11.2096 8.08009 11.4742 8.30295 11.6971C8.52581 11.9199 8.79038 12.0967 9.08156 12.2173C9.37275 12.3379 9.68483 12.4 10 12.4C10.3152 12.4 10.6273 12.3379 10.9184 12.2173C11.2096 12.0967 11.4742 11.9199 11.6971 11.6971C11.9199 11.4742 12.0967 11.2096 12.2173 10.9184C12.3379 10.6273 12.4 10.3152 12.4 10H14C14 11.0609 13.5786 12.0783 12.8284 12.8284C12.0783 13.5786 11.0609 14 10 14C8.93914 14 7.92172 13.5786 7.17158 12.8284C6.42143 12.0783 6 11.0609 6 10Z" fill="#084D43"/>
</g>
</g>
<defs>
<clipPath id="clip0_131_5536">
<rect width="16" height="16" fill="white" transform="translate(2 2)"/>
</clipPath>
</defs>
</svg>
